<svg width="16" height="17" viewBox="0 0 16 17" fill="none" xmlns="http://www.w3.org/2000/svg">
<path d="M8.00008 12.8327C10.3933 12.8327 12.3334 10.8926 12.3334 8.49941C12.3334 6.10618 10.3933 4.16608 8.00008 4.16608C5.60685 4.16608 3.66675 6.10618 3.66675 8.49941C3.66675 10.8926 5.60685 12.8327 8.00008 12.8327Z" stroke="#556400" stroke-linecap="round" stroke-linejoin="round"/>
<path d="M12.7599 13.2594L12.6733 13.1727M12.6733 3.82604L12.7599 3.73937L12.6733 3.82604ZM3.23992 13.2594L3.32659 13.1727L3.23992 13.2594ZM7.99992 1.88604V1.8327V1.88604ZM7.99992 15.166V15.1127V15.166ZM1.38659 8.49937H1.33325H1.38659ZM14.6666 8.49937H14.6133H14.6666ZM3.32659 3.82604L3.23992 3.73937L3.32659 3.82604Z" stroke="#556400" stroke-width="1.33333" stroke-linecap="round" stroke-linejoin="round"/>
</svg>
